<?xml version="1.0" encoding="utf-8"?>
<!-- Generator: Adobe Illustrator 27.5.0, SVG Export Plug-In . SVG Version: 6.00 Build 0)  -->
<svg version="1.1" id="Layer_1" xmlns="http://www.w3.org/2000/svg" xmlns:xlink="http://www.w3.org/1999/xlink" x="0px" y="0px"
	 viewBox="0 0 3000 2000" style="enable-background:new 0 0 3000 2000;" xml:space="preserve">
<rect style="fill:#FFFFFF;" width="3000" height="2000"/>
<g>
	<g>
		<path style="fill:#FCECDB;" d="M2563.958,1536.759H382.666c0,0-2.139-36.791-2.772-69.852
			c-3.103-166.918,35.952-348.04,144.9-472.882c85.167-97.613,219.319-169.104,429.826-167.011
			c42.313,0.413,81.642-0.689,118.347-3.121h0.055c11.161-0.734,22.074-1.597,32.758-2.579l0.11-0.009
			c243.155-22.359,364.99-105.736,475.755-187.057c53.525-39.309,103.516-77.328,163.221-108.296
			c69.26-35.897,151.215-61.973,264.477-67.59c58.302-2.911,113.76,11.549,159.833,46.544
			c84.919,64.506,127.112,190.709,105.028,348.257c-14.951,106.699,18.825,164.551,76.678,202.366
			C2511.007,1160.237,2722.994,1148.807,2563.958,1536.759z"/>
		<polygon style="fill:#EFDECE;" points="1663.136,1112.142 1663.136,1063.427 1651.715,1063.427 1651.715,979.663 
			1590.479,979.663 1590.479,1063.427 1533.229,1063.427 1533.229,926.936 1470.052,926.936 1470.052,1015.539 1455.645,1015.539 
			1455.645,909.758 1392.469,909.758 1392.469,1108.091 1312.57,1108.091 1312.57,1223.745 1282.716,1223.745 1282.716,1172.257 
			1214.144,1172.257 1214.144,1202.709 1174.773,1202.709 1174.773,1066.379 1126.139,1066.379 1126.139,1167.288 
			1077.505,1167.288 1077.505,1537.032 1126.139,1537.032 1167.825,1537.032 1174.773,1537.032 1214.144,1537.032 
			1236.398,1537.032 1272.041,1537.032 1282.716,1537.032 1312.57,1537.032 1340.614,1537.032 1392.469,1537.032 1408.35,1537.032 
			1439.945,1537.032 1455.645,1537.032 1470.052,1537.032 1503.121,1537.032 1525.634,1537.032 1533.229,1537.032 
			1590.479,1537.032 1650.692,1537.032 1651.715,1537.032 1663.136,1537.032 1711.929,1537.032 1711.929,1112.142 		"/>
		<polygon style="fill:#EFDECE;" points="2512.06,1279.584 2512.06,1537.03 1735.751,1537.03 1735.751,1242.994 1782.744,1242.994 
			1782.744,1181.856 1829.738,1181.856 1829.738,1334.462 1867.791,1334.462 1867.791,1316.004 1934.051,1316.004 
			1934.051,1347.202 1962.907,1347.202 1962.907,1277.124 2040.117,1277.124 2040.117,1156.951 2101.162,1156.951 
			2101.162,1221.044 2115.086,1221.044 2115.086,1167.359 2176.141,1167.359 2176.141,1250.066 2231.459,1250.066 2231.459,1199.31 
			2453.877,1199.31 2453.877,1250.066 2464.91,1250.066 2464.91,1279.584 		"/>
		<polygon style="fill:#EFDECE;" points="1083.724,1178.658 1083.724,1535.727 524.794,1535.727 524.794,1225.01 567.639,1225.01 
			567.639,1140.21 610.484,1140.21 610.484,1254.775 645.169,1254.775 645.169,1229.176 705.591,1229.176 705.591,1272.453 
			731.887,1272.453 731.887,1175.262 802.276,1175.262 802.276,1008.591 857.935,1008.591 857.935,1097.484 870.628,1097.484 
			870.628,1023.019 926.286,1023.019 926.286,1137.723 976.731,1137.723 976.731,1067.333 1030.682,1067.333 1030.682,1137.723 
			1040.741,1137.723 1040.741,1178.658 		"/>
		<path style="fill:#DDC7B6;" d="M1744.862,525.953V1534.69h-32.937V544.253C1722.617,537.917,1733.571,531.808,1744.862,525.953z"
			/>
		<polygon style="fill:#DDC7B6;" points="1105.893,821.302 1105.893,1520.436 1105.893,1534.69 1072.965,1534.69 1072.965,1520.436 
			1072.965,823.893 		"/>
	</g>
	<path style="fill:#FFB27D;" d="M2082.102,832.938l0.029,5.377c0,0-1.464,16.817,19.244,19.273
		c20.708,2.462,37.69,2.138,37.129-10.839c-1.865-10.048-5.207-25.644-5.346-33.958c-0.051-3.089,0.16-6.369,0.736-10.07
		l-40.127-0.801l-11.818,1.931L2082.102,832.938z"/>
	<path style="fill:#E2915A;" d="M2081.949,803.85l0.152,29.088c4.264,1.981,9.072,3.191,14.464,3.191
		c18.442,0,30.363-13.524,36.593-23.338c-0.051-3.089,0.16-6.369,0.736-10.07l-40.127-0.801L2081.949,803.85z"/>
	<path style="fill:#FFB27D;" d="M2136.969,796.263c-4.655,25.056-36.986,24.234-50.959,22.659c-3.932-0.438-6.404-0.939-6.404-0.939
		c-4.435-1.184-6.907-8.167-8.057-17.314c-2.281-18.103,0.601-44.675,3.657-51.472c4.603-10.227,13.272-21.288,45.831-13.307
		C2153.601,743.876,2142.942,764.16,2136.969,796.263z"/>
	<path style="fill:#233862;" d="M2163.424,1538.103h-45.814c0.342-2.402,1.511-9.712,3.654-16.444c0.743-2.345,1.61-4.623,2.596-6.6
		c4.455-8.895,32.756-3.237,32.756-3.237s2.629,2.253,4.681,10.854C2162.205,1526.464,2163.006,1531.495,2163.424,1538.103z"/>
	<path style="fill:#233862;" d="M2024.981,1523.644c-0.126,6.232-0.91,12.132-3.171,14.459h-90.618
		c1.151-3.278,4.414-8.21,13.717-9.72c10.571-1.711,27.049-6.8,36.669-16.971c3.43-3.612,5.982-7.876,7.101-12.857
		c4.264-18.98,35.251,5.815,35.251,5.815S2025.182,1514.366,2024.981,1523.644z"/>
	<path style="fill:#2B478B;" d="M2085.254,1318.461c-1.262,6.95-2.063,12.65-2.274,16.738
		c-2.881,56.191-47.3,184.671-55.245,187.667c-12.294,4.64-31.653-5.222-41.781-8.448c-4.197-1.341-7.029-5.574-6.096-9.868
		c21.998-101.126,30.082-246.744,33.023-332.957c1.486-43.425,8.939-73.422,8.939-73.422s108.338-28.905,108.98,7.66
		C2131.371,1138.188,2094.915,1265.083,2085.254,1318.461z"/>
	<path style="fill:#233862;" d="M2085.254,1318.461l-72.373-146.868c1.486-43.425,8.939-73.422,8.939-73.422
		s108.338-28.905,108.98,7.66C2131.371,1138.188,2094.915,1265.083,2085.254,1318.461z"/>
	<path style="fill:#2B478B;" d="M2061.149,1105.959l57.271,415.088c0,0,25.15,6.064,44.712,1.213c0,0,16.768-220.763,15.37-274.134
		s12.034-142.813-3.065-152.676C2160.339,1085.586,2061.149,1105.959,2061.149,1105.959z"/>
	<path style="fill:#233862;" d="M2065.215,725.347c0,0,14.331-1.103,31.234-8.452c13.72-5.965,31.028,0.604,36.646,3.564
		c-0.15-0.905-0.512-2.141-1.37-3.38c0,0,2.523,1.789,2.895,4.289c0.26,0.191,0.376,0.324,0.31,0.368c0,0,2.859-0.523,4.696,0.304
		c0,0-1.286-0.184-1.745,0.643c-0.049,0.087-0.121,0.161-0.206,0.228c21.401,10.34,23.378,44.163,16.491,51.989
		c-8.286,9.416-18.222,30.62-18.222,30.62s-3.623-5.009-2.116-13.295c1.506-8.286-5.649-8.286-14.688-12.052
		c-9.039-3.767-1.507-14.312-9.416-20.715c-7.909-6.402-36.909-2.636-36.532-7.532
		C2062.426,748.003,2065.215,726.449,2065.215,725.347z"/>
	<path style="fill:#E9F3FE;" d="M2143.388,853.96l-13.187,282.922c0,0-110.053,1.799-106.91-23.105
		c3.142-24.904,39.668-251.153,39.668-251.153L2143.388,853.96z"/>
	<path style="fill:#22407A;" d="M2182.68,1014.327c-6.548,19.642,5.797,85.551,10.197,107.879c0.967,4.723,1.61,7.514,1.61,7.514
		c-15.243,24.794-71.061,24.474-71.061,24.474c-10.734-47.446-16.315-123.013-16.315-123.013l42.828-187.743l53.886,49.808
		c0,0-4.078,30.378-9.124,61.291C2190.729,979.012,2186.222,1003.916,2182.68,1014.327z"/>
	<path style="fill:#FFFFFF;" d="M2091.091,800.385c0,0-1.046,3.231-9.202,2.052c0,0-6.849-0.989-6.341-4.594
		C2075.548,797.843,2082.434,795.813,2091.091,800.385z"/>
	<path style="fill:#22407A;" d="M2029.235,857.993c0,0-0.01,0.048-0.024,0.119c-2.604,2.523-76.07,73.852-90.304,101.792
		c-14.491,28.34,66.229,84.799,66.229,84.799s5.195,2.054,8.799,1.25c-3.805,31.336-8.078,60.248-5.547,72.591
		c4.576,22.305,25.208,29.796,25.208,28.08c0-0.546,7.545-81.057,11.644-123.065c8.79-90.075,34.529-179.547,34.529-179.547
		C2055.747,846.508,2029.235,857.993,2029.235,857.993z M1985.493,972.143c-0.107-0.11-0.107-0.325-0.107-0.43
		c0-4.08,15.564-13.098,32.417-23.722c0.215-0.215,0.322-0.325,0.322-0.325c0.011-0.007,0.022-0.014,0.033-0.021
		c-0.3,8.682-0.267,17.2,0.249,25.129c0.956,14.707-0.112,32.285-1.892,50.182C2008.491,1010.426,1987.061,976.758,1985.493,972.143
		z"/>
	<g>
		<path style="fill:#D9E9F9;" d="M2146.507,843.101c0.134-2.7-12.655-6.431-12.655-6.431s-14.638,20.296-38.754,20.646
			c0,0,6.871,13.375,14.972,16.839C2110.069,874.155,2145.71,859.135,2146.507,843.101z"/>
		<path style="fill:#D9E9F9;" d="M2095.098,856.842c0,0-12.777-7.574-12.82-15.785c0,0-8.251-1.033-11.855,2.969
			c0,0-3.029,14.072,0.988,22.245C2071.41,866.271,2089.809,863.468,2095.098,856.842z"/>
		<path style="fill:#BA4C43;" d="M2103.77,855.623l-17.324-4.152c0,0-2.263,0.197-2.201,3.018c0.063,2.822,4.88,11.067,7.014,11.727
			C2093.391,866.876,2107.867,861.333,2103.77,855.623z"/>
		<path style="fill:#E9F3FE;" d="M2144.488,841.707c0.135-2.7-8.521-8.263-8.521-8.263s-16.753,19.582-40.869,19.932
			c0,0,6.871,13.376,14.972,16.839C2110.069,870.215,2143.692,857.741,2144.488,841.707z"/>
		<path style="fill:#E9F3FE;" d="M2095.098,853.375c0,0-12.922-6.85-12.967-15.061c0,0-7.799,3.433-11.402,7.433
			c0,0-3.336,8.883,0.682,17.056C2071.41,862.804,2089.809,860.002,2095.098,853.375z"/>
		<g>
			<path style="fill:#C65447;" d="M2061.229,1048.535c0.59,6.607,3.621,12.762,8.504,17.26l7.674,7.07
				c1.926,1.776,4.956,1.53,6.576-0.527l9.506-12.072c2.549-3.237,3.747-7.334,3.357-11.435c-0.89-9.135-2.546-26.735-3.871-43.722
				c-1.079-13.764-1.944-27.135-2.01-35.27c-0.209-25.972,4.943-108.792,4.943-108.792l-6.227,0.326c0,0-15.464,32.148-23.561,75.89
				c-1.998,10.768-3.539,22.231-4.304,34.1C2061.817,971.363,2058.571,1018.666,2061.229,1048.535z"/>
			<path style="fill:#BA4C43;" d="M2061.229,1048.535c0.59,6.607,3.621,12.762,8.504,17.26l7.674,7.07
				c1.926,1.776,4.956,1.53,6.576-0.527l9.506-12.072c2.549-3.237,3.747-7.334,3.357-11.435c-0.89-9.135-2.546-26.735-3.871-43.722
				c-17.207-19.331-24.18-46.046-26.854-67.846c-1.998,10.768-3.539,22.231-4.304,34.1
				C2061.817,971.363,2058.571,1018.666,2061.229,1048.535z"/>
		</g>
	</g>
	<path style="fill:#FFB27D;" d="M1999.989,1049.3c0-7.213,6.342-13.001,13.473-11.918c1.979,0.3,3.766,1.116,5.002,2.763
		c4.907,6.531,9.575,25.533,0.881,26.421c-3.538,0.362-8.084-2.121-11.586-4.781c-3.557-2.702-7.77-6.936-7.77-11.402V1049.3z"/>
	<path style="fill:#233862;" d="M2192.877,1122.206c-15.779-16.424-43.044-48.733-42.078-75.249
		c1.288-37.14,43.902-92.42,43.902-92.42c-3.972,24.475-8.479,49.379-12.021,59.79
		C2176.132,1033.969,2188.477,1099.878,2192.877,1122.206z"/>
	<path style="fill:#FFB27D;" d="M2192.381,1057.604c0,0-11.343,5.672-18.229,2.836s-14.989-4.966-22.687,3.796
		c-7.697,8.763-9.317,14.839-7.697,18.08s19.566,2.025,22.544,0c2.979-2.025,7.687-7.012,10.675-6.144
		c8.243,2.396,15.185-3.892,19.071-8.9C2198.402,1064.252,2192.076,1062.787,2192.381,1057.604z"/>
	<path style="fill:#22407A;" d="M2149.939,843.438c0,0,45.182,5.002,55.836,24.677c10.655,19.676,66.061,99.413,64.247,132.551
		c-1.814,33.137-75.58,70.295-75.58,70.295s-16.337-6.903-16.582-14.331s50.997-51.822,47.891-60.107
		c-3.106-8.285-59.53-73.808-64.974-95.413C2155.333,879.506,2149.939,843.438,2149.939,843.438z"/>
	<path style="fill:#233862;" d="M2018.125,947.666c0,0-0.107,0.11-0.322,0.325c-16.853,10.624-32.417,19.642-32.417,23.722
		c-2.254-7.193,19.644-37.25,26.729-43.366C2019.306,922.12,2018.125,947.666,2018.125,947.666z"/>
	<path style="fill:#233862;" d="M2135.967,833.444c0,0-34.3,143.66-28.841,197.776c0,0,12.612-57.83,42.959-105.199
		c0,0-11.075-9.74-10.474-13.331c0,0,8.221-2.438,16.197-0.797c0,0-0.882-61.925-5.855-68.467
		C2144.98,836.885,2135.967,833.444,2135.967,833.444z"/>
	<path style="fill:#233862;" d="M2082.131,838.315c0.698-0.411-33.99,140.381-36.891,185.244c0,0,3.438-80.059,3.1-103.132
		c0,0,14.246-7.542,14.246-10.188c0-2.646-15.197-9.801-15.197-9.801s9.624-49.303,14.875-54.736
		C2067.516,840.269,2082.131,838.315,2082.131,838.315z"/>
	<g>
		<g>
			<path style="fill:#22407A;" d="M2382.127,841.419c0,0-52.241-0.444-64.813,17.189c-12.572,17.632-40.14,112.487-25.754,144.05
				c14.386,31.563,41.302-13.056,56.241-32.389C2362.74,950.937,2382.127,841.419,2382.127,841.419z"/>
			<path style="fill:#FFB27D;" d="M2381.594,833.444l0.029,5.401c0,0-1.472,16.889,19.325,19.355
				c20.796,2.473,36.552-6.586,35.988-19.62c-1.873-10.09-3.93-17.02-4.069-25.37c-0.051-3.103,0.162-6.396,0.739-10.113
				l-40.298-0.805l-11.869,1.939L2381.594,833.444z"/>
			<path style="fill:#E2915A;" d="M2381.439,804.233l0.154,29.211c4.28,1.991,9.109,3.206,14.525,3.206
				c18.521,0,30.492-13.582,36.748-23.439c-0.051-3.103,0.162-6.396,0.739-10.113l-40.298-0.805L2381.439,804.233z"/>
			<path style="fill:#FFB27D;" d="M2436.695,796.614c-4.676,25.163-37.146,24.337-51.177,22.755
				c-3.949-0.439-6.434-0.943-6.434-0.943c-4.452-1.189-6.937-8.203-8.091-17.389c-2.291-18.179,0.604-44.867,3.674-51.692
				c4.622-10.271,13.328-21.378,46.026-13.364C2453.397,744.002,2442.694,764.373,2436.695,796.614z"/>
			<path style="fill:#233862;" d="M2417.137,1538.306c0,0,1.93-15.023,6.396-23.957c4.468-8.934,32.892-3.249,32.892-3.249
				s5.684,4.873,6.903,27.613L2417.137,1538.306z"/>
			<path style="fill:#233862;" d="M2320.295,1538.103c6.68-4.076,2.879-34.488,2.879-34.488s-31.121-24.897-35.401-5.835
				c-4.278,19.063-29.565,27.62-43.959,29.955c-9.937,1.61-13.013,7.113-13.966,10.368H2320.295z"/>
			<path style="fill:#233862;" d="M2328.706,912.109c0,0-26.348,54.813-25.76,68.188c0,0,9.317-8.829,25.76-7.67
				C2345.146,973.786,2328.706,912.109,2328.706,912.109z"/>
			<path style="fill:#E2915A;" d="M2385.519,819.369c-3.949-0.439-6.434-0.943-6.434-0.943c-4.452-1.189-6.937-8.203-8.091-17.389
				c8.349,2.057,12.175,8.507,13.769,11.255C2385.483,813.528,2385.629,816.299,2385.519,819.369z"/>
			<path style="fill:#FFB27D;" d="M2364.307,833.602c0,0-18.183-30.003-4.042-31.308c14.14-1.306,19.82,8.264,21.862,11.779
				c2.041,3.515-0.533,19.371-0.533,19.371L2364.307,833.602z"/>
			<path style="fill:#2B478B;" d="M2384.758,1316.909c-1.267,6.981-2.071,12.706-2.283,16.813
				c-2.894,56.431-47.503,185.461-55.482,188.47c-12.346,4.66-31.788-5.244-41.96-8.484c-4.215-1.347-7.06-5.598-6.122-9.91
				c22.092-101.56,30.211-247.802,33.166-334.384c1.491-43.61,8.978-73.736,8.978-73.736s108.802-29.029,109.447,7.693
				C2431.073,1135.864,2394.461,1263.305,2384.758,1316.909z"/>
			<path style="fill:#233862;" d="M2384.758,1316.909l-72.682-147.496c1.491-43.61,8.978-73.736,8.978-73.736
				s108.802-29.029,109.447,7.693C2431.073,1135.864,2394.461,1263.305,2384.758,1316.909z"/>
			<path style="fill:#2B478B;" d="M2360.551,1103.498l57.517,416.866c0,0,25.258,6.091,44.903,1.218
				c0,0,16.84-221.708,15.437-275.308s12.085-143.425-3.078-153.33C2460.165,1083.038,2360.551,1103.498,2360.551,1103.498z"/>
			<path style="fill:#22407A;" d="M2483.671,1081.104c-0.159-1.8-0.305-3.586-0.452-5.36c-0.035-0.47-0.069-0.938-0.105-1.406
				c-0.11-1.395-0.217-2.79-0.322-4.172c-0.029-0.404-0.059-0.809-0.088-1.213c-0.257-3.533-0.492-7.024-0.709-10.47
				c-0.023-0.387-0.046-0.768-0.07-1.154c-0.088-1.43-0.169-2.848-0.252-4.266c-0.018-0.304-0.034-0.614-0.053-0.925
				c-0.093-1.729-0.188-3.444-0.275-5.15c-0.006-0.035-0.006-0.07-0.006-0.105c-0.087-1.629-0.164-3.239-0.239-4.839
				c-0.019-0.375-0.035-0.75-0.054-1.119c-0.064-1.377-0.129-2.748-0.187-4.106c-0.013-0.282-0.024-0.563-0.036-0.838
				c-0.075-1.629-0.14-3.246-0.205-4.846c-0.012-0.222-0.017-0.434-0.029-0.656c-0.052-1.354-0.105-2.7-0.157-4.036
				c-0.018-0.463-0.035-0.927-0.054-1.39c-0.04-1.143-0.081-2.278-0.128-3.409c-0.013-0.434-0.029-0.868-0.047-1.295
				c-0.047-1.377-0.094-2.748-0.141-4.106c-0.042-1.044-0.077-2.08-0.111-3.111c-0.007-0.217-0.012-0.44-0.024-0.662
				c-0.181-5.402-0.356-10.651-0.544-15.772c-0.006-0.076-0.006-0.152-0.012-0.228c-0.111-3-0.223-5.958-0.347-8.865
				c-0.005-0.175-0.017-0.351-0.023-0.526c-0.046-1.196-0.1-2.379-0.158-3.557c-0.012-0.311-0.022-0.615-0.04-0.926
				c-0.059-1.254-0.117-2.501-0.182-3.738c-0.006-0.105-0.012-0.204-0.019-0.31c-0.064-1.289-0.134-2.566-0.204-3.832
				c-0.024-0.392-0.047-0.785-0.07-1.171c-0.053-0.885-0.105-1.758-0.158-2.625c-0.03-0.462-0.059-0.92-0.089-1.377
				c-0.064-0.919-0.122-1.822-0.186-2.73c-0.042-0.551-0.084-1.107-0.125-1.652c-0.058-0.774-0.11-1.546-0.175-2.314
				c-0.006-0.094-0.019-0.188-0.023-0.281c-0.082-1.038-0.17-2.057-0.263-3.083c-0.03-0.316-0.054-0.644-0.083-0.961
				c-0.096-1.077-0.203-2.148-0.311-3.21c0.356-0.421,0.715-0.841,1.066-1.266c24.894-30.033,37.707-68.788,27.659-83.142
				c-16.404-23.435-68.704-32.322-68.704-32.322c0,8.671-18.82,19.538-33.878,18.553c-2.5-0.164-4.824-0.673-6.95-1.421
				c-4.904-12.059-8.271-20.063-8.271-20.063s-5.987-12.256-27.29-5.203c0,0-0.645,10.839,0,27.004
				c0.013,0.293,0.025,0.595,0.038,0.891c-16.229,14.747-35.696,37.057-35.724,58.417c-0.035,30.172-0.41,55.605-0.966,77.014
				c-0.616,23.792-1.472,42.617-2.356,57.469c-2.612,43.842-5.513,53.063-3.614,53.027c0,0,16.68,15.186,60.737,14.904
				c27.7-0.169,50.245-3.25,67.002-6.731c22.538-4.669,34.584-10.065,34.584-10.065
				C2485.082,1102.301,2484.068,1085.675,2483.671,1081.104z"/>
			<path style="fill:#1C468A;" d="M2364.633,725.393c0,0,14.393-1.107,31.369-8.488c13.778-5.991,31.161,0.607,36.804,3.58
				c-0.152-0.91-0.515-2.151-1.376-3.395c0,0,2.533,1.796,2.906,4.308c0.261,0.192,0.378,0.325,0.311,0.369
				c0,0,2.871-0.525,4.717,0.305c0,0-1.291-0.185-1.753,0.646c-0.049,0.088-0.121,0.162-0.207,0.229
				c21.493,10.385,23.479,44.353,16.563,52.211c-8.321,9.457-18.3,30.751-18.3,30.751s-3.639-5.03-2.126-13.352
				c1.513-8.32-5.673-8.32-14.751-12.103c-9.078-3.782-1.513-14.373-9.456-20.803s-37.067-2.648-36.688-7.565
				C2361.833,748.147,2364.633,726.5,2364.633,725.393z"/>
			<path style="fill:#233862;" d="M2443.28,995.695c-8.53,34.25-100.771,51.949-121.74,55.547
				c0.885-14.852,1.74-33.677,2.356-57.469L2443.28,995.695z"/>
			<path style="fill:#FFB27D;" d="M2423.032,1006.827c0.878,0,20.505-2.93,24.021-4.688c3.516-1.758,19.594-24.607,9.064-30.466
				c-10.529-5.859-38.795,17.577-38.795,17.577L2423.032,1006.827z"/>
			<path style="fill:#22407A;" d="M2303.656,1013.616c0,0,75.909,4.117,126.852-6.789c0,0,1.284-14.718-14.726-21.254
				c0,0-79.396-16.829-98.469-12.142C2298.24,978.118,2303.656,1013.616,2303.656,1013.616z"/>
			<path style="fill:#233862;" d="M2477.981,954.045c-15.755,18.994-36.348,34.502-59.051,38.135l-0.006-0.007
				c-47.222-21.314-56.777-94.507-58.377-134.722c0,0,22.345,81.044,52.758,109.371c5.496,5.126,11.261,8.524,17.202,9.409
				c0,0,38.352-10.839,46.396-21.044C2477.477,954.455,2477.829,954.091,2477.981,954.045z"/>
		</g>
		<path style="fill:#233862;" d="M2462.317,908.041c0,0-23.687,29.72-37.833,3.244
			C2424.484,911.285,2439.289,925.681,2462.317,908.041z"/>
	</g>
	<g>
		<g>
			<g>
				<path style="fill:#82B378;" d="M519.427,1391.654c0,0,23.651-27.592,1.458-45.118c0,0-16.21-9.813-29.428-9.017
					c0,0,18.73,31.406,12.67,34.53c-6.06,3.124-18.347-36.501-18.347-36.501s-36.89-3.577-48.756,2.128
					c0,0,31.536,25.808,24.894,27.344c-6.642,1.536-40.704-23.794-40.704-23.794s-34.333,5.843-32.503,26.787
					c1.831,20.944,13.661,27.412,18.861,26.855c5.199-0.557,35.615-12.168,36.278-7.907c0.662,4.26-17.647,18.184-30.467,18.835
					c0,0,24.206,26.694,40.294,18.99s17.46-19.917,27.489-24.497c10.028-4.58,18.588-4.569,14.448,0.103
					c-4.14,4.672-22.289,9.212-28.024,19.355c-5.735,10.145-10.88,16.986,5.764,14.481c16.644-2.504,43.699-14.683,44.887-28.629
					C519.427,1391.654,519.427,1391.654,519.427,1391.654z"/>
				<g>
					<path style="fill:#82B378;" d="M405.581,1368.579c0,0,93.252-3.594,113.846,23.075c0,0,4.555,13.641,18.569,26.062l2.185,5.953
						c0,0-16.159-17.038-21.942-18.068C518.24,1405.601,527.282,1372.561,405.581,1368.579z"/>
					<path style="fill:#82B378;" d="M537.997,1417.716c0,0,20.016,14.803,21.406,41.252l-3.633,0.325
						c0,0-6.393-27.349-17.947-38.043C526.268,1410.555,537.997,1417.716,537.997,1417.716z"/>
				</g>
			</g>
			<g>
				<path style="fill:#A8D29F;" d="M602.119,1356.954c0,0-37.622-21.068-20.065-49.662c0,0,14.045-17.557,29.094-22.071
					c0,0-8.026,42.639,0,43.642c8.026,1.004,5.519-48.156,5.519-48.156s39.629-19.063,55.18-17.558c0,0-24.58,41.636-16.554,40.633
					c8.026-1.004,35.616-43.141,35.616-43.141s40.632-7.524,47.154,16.554c6.521,24.079-4.013,36.118-10.033,37.623
					c-6.02,1.505-44.646,1.003-43.643,6.02c1.003,5.017,27.088,13.042,41.636,8.527c0,0-16.052,39.63-37.121,37.623
					c-21.069-2.007-27.59-15.049-40.633-16.053c-13.042-1.003-22.573,2.509-16.052,6.02c6.521,3.512,28.593,1.151,39.128,10.106
					c10.534,8.956,19.062,14.474-0.502,18.487c-19.563,4.013-54.678,1.505-61.701-13.544
					C602.119,1356.954,602.119,1356.954,602.119,1356.954z"/>
				<g>
					<path style="fill:#82B378;" d="M719.502,1284.719c0,0-105.343,34.111-117.383,72.235c0,0,0.502,17.056-10.032,36.62v7.524
						c0,0,11.036-25.584,17.055-29.095C609.142,1372.004,585.565,1338.896,719.502,1284.719z"/>
					<path style="fill:#82B378;" d="M592.087,1393.574c0,0-16.246,24.67-6.984,54.699l4.18-1.122c0,0-4.057-33.076,4.442-49.712
						C602.224,1380.804,592.087,1393.574,592.087,1393.574z"/>
				</g>
			</g>
			<g>
				<path style="fill:#A8D29F;" d="M542.265,1327.897c0,0,49.594-27.772,26.45-65.463c0,0-18.515-23.144-38.352-29.095
					c0,0,10.58,56.205,0,57.528c-10.58,1.322-7.274-63.48-7.274-63.48s-52.238-25.127-72.737-23.144
					c0,0,32.401,54.884,21.821,53.562c-10.58-1.322-46.949-56.867-46.949-56.867s-53.561-9.919-62.157,21.821
					c-8.596,31.739,5.29,47.609,13.225,49.593c7.935,1.984,58.851,1.323,57.528,7.936c-1.322,6.612-35.707,17.192-54.883,11.241
					c0,0,21.16,52.238,48.932,49.594c27.772-2.646,36.369-19.838,53.561-21.16s29.756,3.307,21.16,7.935
					c-8.596,4.629-37.691,1.517-51.578,13.322c-13.886,11.806-25.127,19.079,0.662,24.369c25.789,5.29,72.076,1.983,81.333-17.854
					C542.265,1327.897,542.265,1327.897,542.265,1327.897z"/>
				<g>
					<path style="fill:#82B378;" d="M387.533,1232.678c0,0,138.862,44.965,154.732,95.22c0,0-0.661,22.482,13.225,48.271v9.919
						c0,0-14.547-33.724-22.482-38.353C533.007,1347.735,564.086,1304.093,387.533,1232.678z"/>
					<path style="fill:#82B378;" d="M555.49,1376.169c0,0,21.415,32.52,9.207,72.104l-5.51-1.479c0,0,5.348-43.601-5.856-65.529
						S555.49,1376.169,555.49,1376.169z"/>
				</g>
			</g>
			<path style="fill:#F1A34F;" d="M543.935,1534.116c-53.652,0-97.145-43.493-97.145-97.146h194.291
				C641.081,1490.623,597.588,1534.116,543.935,1534.116z"/>
			<path style="fill:#FFB973;" d="M569.242,1533.373c-3.951,0.493-7.98,0.743-12.07,0.743c-53.651,0-97.141-43.495-97.141-97.146
				h24.134C484.165,1486.536,521.285,1527.43,569.242,1533.373z"/>
			<path style="fill:#F1A34F;" d="M445.448,1539.06h196.975l0,0c0-6.619-5.366-11.985-11.985-11.985H457.434
				C450.814,1527.074,445.448,1532.44,445.448,1539.06L445.448,1539.06z"/>
			
				<rect x="444.581" y="1436.97" transform="matrix(-1 -1.224647e-16 1.224647e-16 -1 1088.8564 2876.9189)" style="fill:#D86713;" width="199.695" height="2.98"/>
		</g>
		<g>
			<g>
				<path style="fill:#D2E4FF;" d="M714.202,615.999h1068.224c15.581,0,28.213,12.631,28.213,28.213v612.946
					c0,15.581-12.632,28.213-28.213,28.213H714.202c-15.582,0-28.213-12.632-28.213-28.213V644.212
					C685.989,628.63,698.62,615.999,714.202,615.999z"/>
				<g>
					
						<rect x="767.289" y="865.247" transform="matrix(-1 -1.224647e-16 1.224647e-16 -1 2114.3672 2122.228)" style="fill:#F3F9FF;" width="579.79" height="391.735"/>
					<path style="fill:#A6C7F9;" d="M1323.173,1065.184c0,0-98.994-12.334-159.485,43.394c-60.492,55.727-173.181,4.938-218.553,0
						c-78.888-8.586-140.733,17.224-159.076,45.595v85.109h537.114V1065.184z"/>
					
						<rect x="1242.295" y="928.211" transform="matrix(-1 -1.224647e-16 1.224647e-16 -1 2488.7368 1989.3247)" style="fill:#A6C7F9;" width="4.147" height="132.902"/>
					
						<rect x="1079.501" y="985.241" transform="matrix(-1 -1.224647e-16 1.224647e-16 -1 2163.1499 2103.3848)" style="fill:#A6C7F9;" width="4.148" height="132.902"/>
					
						<rect x="911.524" y="955.171" transform="matrix(-1 -1.224647e-16 1.224647e-16 -1 1827.1953 2043.2441)" style="fill:#A6C7F9;" width="4.147" height="132.902"/>
					<path style="fill:#A6C7F9;" d="M1195.979,948.604h31.799c1.901,0,3.456-1.555,3.456-3.456l0,0c0-1.901-1.555-3.456-3.456-3.456
						h-31.799c-1.9,0-3.455,1.555-3.455,3.456l0,0C1192.524,947.049,1194.08,948.604,1195.979,948.604z"/>
					<path style="fill:#A6C7F9;" d="M1195.979,961.047h31.799c1.901,0,3.456-1.555,3.456-3.457l0,0c0-1.901-1.555-3.456-3.456-3.456
						h-31.799c-1.9,0-3.455,1.555-3.455,3.456l0,0C1192.524,959.492,1194.08,961.047,1195.979,961.047z"/>
					<path style="fill:#A6C7F9;" d="M1035.606,1016.348h31.798c1.9,0,3.457-1.555,3.457-3.455l0,0c0-1.901-1.557-3.457-3.457-3.457
						h-31.798c-1.9,0-3.457,1.556-3.457,3.457l0,0C1032.149,1014.793,1033.706,1016.348,1035.606,1016.348z"/>
					<path style="fill:#A6C7F9;" d="M1035.606,1028.535h31.798c1.9,0,3.457-1.556,3.457-3.457l0,0c0-1.901-1.557-3.456-3.457-3.456
						h-31.798c-1.9,0-3.457,1.555-3.457,3.456l0,0C1032.149,1026.979,1033.706,1028.535,1035.606,1028.535z"/>
					<path style="fill:#A6C7F9;" d="M864.864,966.231h31.798c1.9,0,3.456-1.556,3.456-3.456l0,0c0-1.901-1.555-3.456-3.456-3.456
						h-31.798c-1.901,0-3.457,1.556-3.457,3.456l0,0C861.407,964.676,862.962,966.231,864.864,966.231z"/>
					<path style="fill:#A6C7F9;" d="M864.864,978.418h31.798c1.9,0,3.456-1.555,3.456-3.457l0,0c0-1.901-1.555-3.456-3.456-3.456
						h-31.798c-1.901,0-3.457,1.555-3.457,3.456l0,0C861.407,976.863,862.962,978.418,864.864,978.418z"/>
				</g>
				<g>
					<g>
						<path style="fill:#F3F9FF;" d="M1541.064,787.465c0-31.617-25.631-57.247-57.248-57.247
							c-31.616,0-57.247,25.631-57.247,57.247s25.63,57.248,57.247,57.248C1515.434,844.713,1541.064,819.082,1541.064,787.465z"/>
						<path style="fill:#A6C7F9;" d="M1431.423,787.464c0,28.935,23.458,52.394,52.394,52.394c13.66,0,26.1-5.223,35.417-13.784
							l-35.417-38.61v-52.394C1454.881,735.071,1431.423,758.529,1431.423,787.464z"/>
						<path style="fill:#A6C7F9;" d="M1503.772,778.234h18.814c0.866,0,1.576-0.709,1.576-1.577l0,0c0-0.867-0.71-1.576-1.576-1.576
							h-18.814c-0.867,0-1.577,0.709-1.577,1.576l0,0C1502.195,777.525,1502.905,778.234,1503.772,778.234z"/>
					</g>
					<g>
						<path style="fill:#F3F9FF;" d="M1683.198,787.465c0-31.617-25.63-57.247-57.248-57.247c-31.616,0-57.247,25.631-57.247,57.247
							s25.631,57.248,57.247,57.248C1657.568,844.713,1683.198,819.082,1683.198,787.465z"/>
						<path style="fill:#A8D2A0;" d="M1625.948,787.464l-32.193,41.338c8.881,6.932,20.054,11.056,32.193,11.056
							c28.944,0,52.401-23.458,52.401-52.394c0-28.936-23.457-52.394-52.401-52.394c-27.32,0-49.76,20.912-52.176,47.607
							L1625.948,787.464z"/>
						<path style="fill:#A6C7F9;" d="M1585.605,800.419h13.093c0.866,0,1.576-0.709,1.576-1.576l0,0c0-0.867-0.71-1.577-1.576-1.577
							h-13.093c-0.867,0-1.576,0.71-1.576,1.577l0,0C1584.029,799.71,1584.738,800.419,1585.605,800.419z"/>
					</g>
					<g>
						<path style="fill:#F3F9FF;" d="M1541.064,945.139c0-31.616-25.631-57.247-57.248-57.247
							c-31.616,0-57.247,25.631-57.247,57.247c0,31.617,25.63,57.247,57.247,57.247
							C1515.434,1002.387,1541.064,976.756,1541.064,945.139z"/>
						<path style="fill:#A8D2A0;" d="M1431.423,945.138c0,28.936,23.458,52.395,52.394,52.395c13.66,0,26.1-5.223,35.417-13.784
							l-35.417-38.611v-52.394C1454.881,892.745,1431.423,916.203,1431.423,945.138z"/>
						<path style="fill:#A6C7F9;" d="M1503.772,935.908h18.814c0.866,0,1.576-0.709,1.576-1.576l0,0c0-0.867-0.71-1.576-1.576-1.576
							h-18.814c-0.867,0-1.577,0.709-1.577,1.576l0,0C1502.195,935.199,1502.905,935.908,1503.772,935.908z"/>
					</g>
					<g>
						<path style="fill:#F3F9FF;" d="M1683.198,945.139c0-31.616-25.63-57.247-57.248-57.247c-31.616,0-57.247,25.631-57.247,57.247
							c0,31.617,25.631,57.247,57.247,57.247C1657.568,1002.387,1683.198,976.756,1683.198,945.139z"/>
						<path style="fill:#A6C7F9;" d="M1573.772,940.352c2.416-26.695,24.855-47.608,52.176-47.608
							c28.944,0,52.401,23.458,52.401,52.394c0,28.936-23.457,52.395-52.401,52.395c-12.14,0-23.312-4.125-32.193-11.056
							l32.193-41.338L1573.772,940.352z"/>
						<path style="fill:#A6C7F9;" d="M1585.605,958.094h13.093c0.866,0,1.576-0.71,1.576-1.577l0,0c0-0.867-0.71-1.575-1.576-1.575
							h-13.093c-0.867,0-1.576,0.708-1.576,1.575l0,0C1584.029,957.384,1584.738,958.094,1585.605,958.094z"/>
					</g>
				</g>
				<g>
					
						<rect x="1401.173" y="1047.701" transform="matrix(-1 -1.224647e-16 1.224647e-16 -1 3113.5171 2304.5586)" style="fill:#F3F9FF;" width="311.171" height="209.156"/>
					<g>
						<polygon style="fill:#A6C7F9;" points="1414.586,1242.242 1700.205,1242.242 1700.205,1073.479 1696.653,1073.479 
							1696.653,1238.69 1414.586,1238.69 						"/>
					</g>
					<g>
						<path style="fill:#A8D2A0;" d="M1610.918,1181.213c34.964-27.832,72.146,0,72.146,0v47.582h-261.39v-122.996
							C1492.71,1107.595,1575.956,1209.044,1610.918,1181.213z"/>
						<path style="fill:#A6C7F9;" d="M1680.072,1086.348h-121.8c-1.646,0-2.992-1.347-2.992-2.993c0-1.646,1.347-2.992,2.992-2.992
							h121.8c1.646,0,2.992,1.347,2.992,2.992C1683.064,1085.001,1681.719,1086.348,1680.072,1086.348z"/>
						<path style="fill:#A6C7F9;" d="M1680.072,1100.971h-121.8c-1.646,0-2.992-1.346-2.992-2.992s1.347-2.993,2.992-2.993h121.8
							c1.646,0,2.992,1.347,2.992,2.993S1681.719,1100.971,1680.072,1100.971z"/>
						<path style="fill:#A6C7F9;" d="M1680.616,1114.777h-80.647c-1.348,0-2.449-1.103-2.449-2.449v-1.087
							c0-1.348,1.102-2.45,2.449-2.45h80.647c1.347,0,2.448,1.103,2.448,2.45v1.087
							C1683.064,1113.675,1681.963,1114.777,1680.616,1114.777z"/>
					</g>
				</g>
				<path style="fill:#A8D2A0;" d="M1333.137,825.152H781.231c-7.7,0-13.942-6.242-13.942-13.942l0,0
					c0-7.7,6.243-13.942,13.942-13.942h551.906c7.7,0,13.942,6.242,13.942,13.942l0,0
					C1347.079,818.91,1340.836,825.152,1333.137,825.152z"/>
				<path style="fill:#A8D2A0;" d="M1333.137,761.412H781.231c-7.7,0-13.942-6.242-13.942-13.942l0,0
					c0-7.7,6.243-13.942,13.942-13.942h551.906c7.7,0,13.942,6.242,13.942,13.942l0,0
					C1347.079,755.17,1340.836,761.412,1333.137,761.412z"/>
				<path style="fill:#A8D2A0;" d="M1674.129,693.976H781.842c-7.197,0-13.031-5.834-13.031-13.031l0,0
					c0-7.197,5.835-13.031,13.031-13.031h892.287c7.196,0,13.031,5.834,13.031,13.031l0,0
					C1687.16,688.142,1681.325,693.976,1674.129,693.976z"/>
			</g>
			<rect x="1240.488" y="1285.371" style="fill:#1C468A;" width="15.651" height="252.392"/>
			<path style="fill:#1C468A;" d="M1751.268,631.104H745.36c-6.159,0-11.151-4.992-11.151-11.15l0,0
				c0-6.159,4.992-11.151,11.151-11.151h1005.908c6.158,0,11.15,4.992,11.15,11.151l0,0
				C1762.418,626.112,1757.426,631.104,1751.268,631.104z"/>
			<path style="fill:#233862;" d="M1413.039,1526.285h-329.45c-3.674,0-6.652,2.979-6.652,6.652l0,0
				c0,3.673,2.978,6.651,6.652,6.651h329.45c3.673,0,6.651-2.979,6.651-6.651l0,0
				C1419.69,1529.264,1416.712,1526.285,1413.039,1526.285z"/>
		</g>
		<g>
			<g>
				<polygon style="fill:#E49963;" points="662.102,1443.523 675.164,1498.537 694.729,1498.426 695.447,1443.523 				"/>
				<polygon style="fill:#E49963;" points="826.676,1445.868 863.842,1498.537 878.327,1479.938 855.958,1438.627 				"/>
				<path style="fill:#163560;" d="M730.052,720.604c-6.754-3.839-14.848-4.258-20.51-3.923c1.458-1.505,4.326-2.053,4.326-2.053
					c-3.511-0.522-11.347,2.96-11.347,2.96c-48.834-18.817-56.51,53.087-55.483,69.793c1.019,16.704-16.41,22.159-41.817,35.32
					c-48.477,25.114-52.734,58.741-52.734,58.741c0.377,0.223,0.771,0.477,1.191,0.765c2.405-4.075,7.356-11.727,11.532-12.881
					c-0.158,0.371-4.934,10.536-6.716,16.36c14.301,10.879,41.055,34.984,59.701,52.075c-0.083-3.34,0.05-8.083,1.271-10.587
					l2.303,13.872c9.978,9.172,16.858,15.625,16.858,15.625c-1.232-13.499,61.055-84.739,93.551-106.074
					c7.911-11.645,10.723-32.22,10.933-33.839c-1.365,16.313-4.156,25.463-6.65,30.615
					C763.975,822.048,747.955,730.777,730.052,720.604z"/>
				<path style="fill:#E49963;" d="M730.251,851.66c0.163,0.073-15.69,8.304-27.614,5.042
					c-11.217-3.058-18.545-17.602-18.391-17.635c4.75-0.943,6.12-7.47,6.019-35.521l2.147,0.423l36.107,7.15
					c0,0-0.822,11.363-0.846,22.066C727.648,842.175,728.193,850.7,730.251,851.66z"/>
				<path style="fill:#D68D5D;" d="M728.519,811.12c0,0-0.822,11.363-0.846,22.066c-20.205-0.569-30.884-19.001-35.261-29.216
					L728.519,811.12z"/>
				<path style="fill:#163560;" d="M688.683,800.039c0,0-10.588-16.73-13.129-31.035c-1.815-10.214,3.387-48.071,41.43-42.619
					c0,0,11.049,1.089,21.435,8.103c8.26,5.579,20.18,17.622,6.852,50.657l-3.462,11.16L688.683,800.039z"/>
				<path style="fill:#2B478B;" d="M872.43,1465.502l-19.139,0.585l-20.717,0.635c0,0-47.852-53.277-74.694-138.684
					c-0.627-1.985-1.285-3.993-1.985-6.027c-14.69-42.834-45.143-96.599-61.191-145.265c-2.554-7.751-4.848-15.047-6.906-21.953
					c-0.659-2.212-1.301-4.384-1.912-6.523c-11.827-41.093-15.251-68.072-18.407-96.899l115.884,0.928
					C783.363,1052.298,802.071,1249.139,872.43,1465.502z"/>
				<path style="fill:#E7F1FD;" d="M767.14,985.709c-0.292,55.145,8.089,78.804,8.089,78.804s-49.617,25.209-108.588,6.653
					c-0.695-0.219-45.513-10.448-45.513-10.448c0.987-2.231,16.199-39.254,17.161-41.301c12.451-26.738,12.153-39.359,13.63-47.579
					c2.739-15.346,2.799-31.225,1.434-46.2c-3.598-39.644-14.299-72.553-14.299-72.553c16.067-3.656,31.115-10.08,47.838-16.351
					c3.847,4.789,15.606,9.802,25.807,9.573c11.747-0.259,15.556-5.288,14.946-10.778c12.519,6.966,22.507,13.546,22.507,13.546
					c10.639,18.48,32.216,36.426,33.778,64.773C784.317,920.819,767.148,984.165,767.14,985.709z"/>
				<path style="fill:#C65447;" d="M826.149,940.355c-10.114-24.125-40.058-78.762-81.74-97.714l15.138,84.921
					c0,0-1.909,13.152,6.817,23.977c21.378,26.523,53.307,45.473,53.307,45.473s26.609-2.679,66.024-15.801
					c12.372-4.119,38.962-26.448,38.962-26.448l0.359-17.406c0,0-35.242,7.1-47.461,8.486c-6.965,0.791-23.072,2.846-34.426,4.308
					C835.908,951.083,828.965,947.07,826.149,940.355z"/>
				<path style="fill:#E49963;" d="M735.266,821.256c0,0-47.804,0.788-47.837-28.989c-0.033-29.777-6.225-49.73,24.295-51.493
					c30.52-1.763,36.463,9.593,38.891,19.53C753.044,770.241,747.7,820.284,735.266,821.256z"/>
				<path style="fill:#163560;" d="M733.497,740.045c0,0-13.089,34.935-33.175,40.1c-20.087,5.166-28.8-0.216-28.8-0.216
					s2.858-30.435,6.056-51.8C677.578,728.128,723.623,723.417,733.497,740.045z"/>
				<path style="fill:#163560;" d="M730.253,742.881c0,0,9.774,7.799,12.158,15.382s3.456,23.193,8.004,22.662
					c0,0,9.861-23.745-1.221-37.177C737.443,729.504,730.253,742.881,730.253,742.881z"/>
				<path style="fill:#E49963;" d="M925.017,937.357c0,0,13.848-21.061,38.218-9.622c2.624,1.852,10.056,7.991,1.673,15.365
					c-6.179,5.437-6.802,1.407-16.026,8.417c-9.223,7.01-16.736,6.847-24.225,3.247L925.017,937.357z"/>
				<path style="fill:#E49963;" d="M674.507,1495.462c0,0,1.576,10.896-2.491,22.556c0,0-3.203,14.59,11.168,14.861
					c14.37,0.271,17.894-1.085,16.268-10.032c-1.627-8.947-4.722-24.421-4.722-24.421L674.507,1495.462z"/>
				<path style="fill:#9E322A;" d="M700.808,1539.11c0,0-0.307,0.189-0.903,0.479h-28.128c-0.542-0.289-0.795-0.479-0.795-0.479
					c-1.624-7.321,1.03-21.097,1.03-21.097c16.275,14.913,26.458-0.37,26.458-0.37
					C701.115,1524.018,700.808,1539.11,700.808,1539.11z"/>
				<path style="fill:#E49963;" d="M912.953,1524.308c0,0-26.492-29.405-34.626-44.369l-19.7,10.093l44.037,41.355l10.303-1.355
					L912.953,1524.308z"/>
				<path style="fill:#9E322A;" d="M929.392,1539.589h-36.253c-3.494-2.609-6.752-8.648-10.805-16.755
					c-2.158-4.323-7.014-6.707-11.997-8.016v24.49h-7.519l-7.123-26.034c-4.685-8.62-0.37-16.438,2.934-23.245
					c3.836-0.009,14.163,2.619,33.734,24.672c6.436,7.24,13.54,9.831,20.591,9.605c0.099,0.063,0.199,0.117,0.289,0.153
					C925.05,1529.768,928.426,1536.366,929.392,1539.589z"/>
				<path style="fill:#C65447;" d="M727.646,835.528c0,0,27.658,68.326,28.472,82.154c0.813,13.827,3.253,226.123,3.253,226.123
					s-1.627,9.761,17.081,5.693c18.708-4.066,23.588-8.134,23.588-8.134s-17.894-130.956-13.014-176.506
					c4.248-39.655-27.442-101.299-35.717-116.592c-1.229-2.271-3.188-4.051-5.565-5.06L727.646,835.528z"/>
				<path style="fill:#233862;" d="M853.29,1466.087l-20.717,0.635c0,0-47.852-53.277-74.694-138.684
					c-0.627-1.985-1.285-3.993-1.985-6.027c-14.69-42.834-45.143-96.599-61.191-145.265c-2.554-7.751-4.848-15.047-6.906-21.953
					c-0.659-2.212-1.301-4.384-1.912-6.523l17.065-12.949c0,0,51.236,82.967,67.097,161.044
					C783.827,1364.186,839.007,1445.793,853.29,1466.087z"/>
				<path style="fill:#2B478B;" d="M704.732,1303.636c0.293,37.969-1.626,125.263-6.572,161.402H679.81
					c-10.143,0-15.202-0.146-15.202-0.146c-12.404-62.835-21.23-114.827-27.655-159.629c-5.271-36.766-9.956-68.284-13.56-95.419
					c-3.628-27.306-6.149-50.17-7.052-69.488c-0.138-3.042-0.244-6.003-0.301-8.874c-0.057-2.887-0.073-5.694-0.049-8.419
					l100.129-9.761C714.859,1179.829,704.57,1281.568,704.732,1303.636z"/>
				<path style="fill:#233862;" d="M679.81,1465.038c-10.143,0-15.202-0.146-15.202-0.146
					c-12.404-62.835-21.23-114.827-27.655-159.629c-5.271-36.766-9.956-68.284-13.56-95.419c-3.628-27.306-6.149-50.17-7.052-69.488
					l36.741,21.611c0,0-23.45,8.272-14.503,70.904C647.526,1295.502,667.357,1456.171,679.81,1465.038z"/>
				<path style="fill:#C65447;" d="M684.539,1139.738c0,0-7.052,25.484-31.454,22.23c-24.402-3.254-59.101-17.895-59.101-17.895
					s10.428-32.95,23.394-76.24c15.698-52.406,35.13-119.966,44.289-162.581c2.57-11.94,4.327-21.913,4.978-29.054l20.246-39.278
					c0,0,30.185,67.747,31.812,84.828C720.328,938.831,684.539,1139.738,684.539,1139.738z"/>
				<path style="fill:#E49963;" d="M660.173,919.204l26.719-82.283c-0.073,0.034-33.747,10.02-50.686,18.577
					c0,0-10.587,13.65-17.139,45.143c0,0-6.921,75.606,8.533,103.262c0,0,48.804,9.761,126.889-17.081v-17.895
					c0,0-85.406,4.474-102.894,6.507L660.173,919.204z"/>
				<path style="fill:#9E322A;" d="M683.456,957.538c-1.09,27.656-7.597,81.34-65.616,110.077c-0.154,0.072-0.309,0.154-0.463,0.219
					c15.698-52.406,35.13-119.966,44.289-162.581C672.321,921.18,684.05,942.312,683.456,957.538z"/>
				<path style="fill:#C65447;" d="M686.893,836.921c0,0-49.531,3.489-61.461,30.06c-11.93,26.571-15.726,114.959-0.542,140.988
					c0,0,20.904,5.953,57.875-0.96c0.453-0.084,0.909-0.172,1.367-0.26c0,0,11.794-28.875,1.22-34.569c0,0-31.18,1.627-27.927-8.676
					C660.679,953.201,686.893,836.921,686.893,836.921z"/>
				<path style="fill:#E49963;" d="M745.735,973.685c0,0,6.805-8.246,8.254-16.664c1.45-8.419,5.954-14.662,17.698-16.205
					c11.744-1.543,16.792-1.71,16.763,1.6c-0.03,3.311-9.595,26.422-26.446,40.224C745.151,996.441,745.735,973.685,745.735,973.685
					z"/>
			</g>
			<path style="fill:#233862;" d="M939.594,946.233c0.381,0.123,0.799,0.146,1.215,0.045l209.701-50.152
				c1.212-0.291,1.959-1.509,1.668-2.721c-0.291-1.214-1.512-1.958-2.721-1.668L939.756,941.89c-1.212,0.29-1.959,1.508-1.668,2.72
				C938.279,945.406,938.869,946,939.594,946.233z"/>
		</g>
	</g>
	<path style="fill:#E9F3FE;" d="M2351.58,1117.135c0,0,31.938,5.945,67.685-0.428c0,0-29.12,4.626-33.843-5.207
		c-3.414-7.109-9.005-45.61-9.985-67.667C2375.437,1043.833,2366.008,1120.562,2351.58,1117.135z"/>
	<path style="fill:#233862;" d="M2365.063,904.426c0.173,3.044-9.938,10.141-9.938,10.141c9.744,19.643,16.081,40.82,20.073,57.85
		l9.082,0.301c0.325-16.525-0.376-35.405-1.51-53.676c-14.88-31.36-20.615-52.969-22.548-66.991
		c-4.194,14.987-8.571,50.233-8.571,50.233C2358.442,901.646,2365.063,904.426,2365.063,904.426z"/>
	<path style="fill:#E9F3FE;" d="M2433.382,845.675l-17.063,57.643l-20.21-47.604
		C2396.108,855.713,2422.494,856.851,2433.382,845.675z"/>
	<g>
		<path style="fill:#D9E9F9;" d="M2445.41,845.869c0.122-2.453-11.496-5.842-11.496-5.842s-15.704,15.811-37.613,16.129
			c0,0,8.649,14.778,16.008,17.924C2412.309,874.081,2444.688,860.435,2445.41,845.869z"/>
		<path style="fill:#E9F3FE;" d="M2443.578,844.602c0.121-2.453-7.105-8.443-7.105-8.443s-18.455,19.235-40.364,19.554
			c0,0,8.842,11.641,16.2,14.787C2412.309,870.5,2442.854,859.169,2443.578,844.602z"/>
	</g>
	<path style="fill:#233862;" d="M2436.527,921.949c-1.842-2.547-3.271-5.095-2.914-6.509c0,0,8.699-6.723,16.516-4.439
		c0,0,3.843-56.832-0.583-63.756s-13.073-11.086-13.073-11.086s-9.771,29.749-20.154,67.158
		C2419.688,909.479,2426.768,920.005,2436.527,921.949z"/>
	<path style="fill:#22407A;" d="M2375.437,1043.833c0,0,2.333,58.167,14.833,83.417c0,0,91.75-9,101.5-15.5l-11.776-97.371
		L2375.437,1043.833z"/>
	<path style="fill:#22407A;" d="M2320.745,1063.486c-0.191,18.986-7.976,43.139-7.976,43.139c7.5,6.75,38.25,18,38.25,18
		c18.625-21.5,24.417-80.792,24.417-80.792L2320.745,1063.486z"/>
	<path style="fill:#2E3552;" d="M2656.109,1542H343.891c-1.363,0-2.478-1.115-2.478-2.479v-0.522c0-1.363,1.116-2.479,2.479-2.479
		h2312.216c1.363,0,2.479,1.116,2.479,2.48v0.521C2658.587,1540.885,2657.473,1542,2656.109,1542z"/>
</g>
</svg>
